<svg xmlns="http://www.w3.org/2000/svg" xmlns:xlink="http://www.w3.org/1999/xlink" width="128" height="128" viewBox="0 0 128 128">
  <defs>
    <linearGradient id="vite-gradient" x1="0%" y1="0%" x2="100%" y2="100%">
      <stop offset="0%" stop-color="#646CFF"/>
      <stop offset="100%" stop-color="#8B8CFF"/>
    </linearGradient>
  </defs>
  <path fill="url(#vite-gradient )" d="M64 0C28.7 0 0 28.7 0 64s28.7 64 64 64s64-28.7 64-64S99.3 0 64 0zm0 112c-26.5 0-48-21.5-48-48s21.5-48 48-48s48 21.5 48 48s-21.5 48-48 48z"/>
  <path fill="#FFFFFF" d="M64 24c-22.1 0-40 17.9-40 40s17.9 40 40 40s40-17.9 40-40s-17.9-40-40-40zm0 72c-17.6 0-32-14.4-32-32s14.4-32 32-32s32 14.4 32 32s-14.4 32-32 32z"/>
  <path fill="#646CFF" d="M64 32c-17.6 0-32 14.4-32 32s14.4 32 32 32s32-14.4 32-32s-14.4-32-32-32zm0 56c-13.2 0-24-10.8-24-24s10.8-24 24-24s24 10.8 24 24s-10.8 24-24 24z"/>
  <path fill="#FFFFFF" d="M64 40c-13.2 0-24 10.8-24 24s10.8 24 24 24s24-10.8 24-24s-10.8-24-24-24zm0 40c-8.8 0-16-7.2-16-16s7.2-16 16-16s16 7.2 16 16s-7.2 16-16 16z"/>
  <path fill="#646CFF" d="M64 48c-8.8 0-16 7.2-16 16s7.2 16 16 16s16-7.2 16-16s-7.2-16-16-16zm0 24c-4.4 0-8-3.6-8-8s3.6-8 8-8s8 3.6 8 8s-3.6 8-8 8z"/>
  <path fill="#FFFFFF" d="M64 56c-4.4 0-8 3.6-8 8s3.6 8 8 8s8-3.6 8-8s-3.6-8-8-8z"/>
</svg>
